# xmcd
#
# Track frame offsets:
#	150
#	9473
#	32439
#	52273
#	80897
#	105670
#	124383
#	145585
#	149361
#	169114
#
# Disc length: 2844 seconds
#
# Revision: 1
# Processed by: cddbd v1.5.2PL0 Copyright (c) Steve Scherf et al.
# Submitted via: audiograbber 1.83.01
#
DISCID=8a0b1a0a
DTITLE=Alchemyst - Nekromanteion
DYEAR=2012
DGENRE=Death Metal
TTITLE0=Pulse of Tartaros
TTITLE1=House of Aides (Nekromanteion Pt. I)
TTITLE2=Rites of the Holy Hill
TTITLE3=The Inner Fire
TTITLE4=Kharon (Nekromanteion Pt. II)
TTITLE5=Circle of Elements
TTITLE6=Okkvltista
TTITLE7=A Cave of Trees
TTITLE8=Temple of Medusa
TTITLE9=Oracle of the Dead (Nekromanteion Pt. III)
EXTD=
EXTT0=
EXTT1=
EXTT2=
EXTT3=
EXTT4=
EXTT5=
EXTT6=
EXTT7=
EXTT8=
EXTT9=
PLAYORDER=
